<svg width="40" height="40" viewBox="0 0 40 40" fill="none" xmlns="http://www.w3.org/2000/svg">
    <!-- 书本主体 -->
    <path d="M8 6C6.89543 6 6 6.89543 6 8V32C6 33.1046 6.89543 34 8 34H32C33.1046 34 34 33.1046 34 32V8C34 6.89543 33.1046 6 32 6H8Z" 
          fill="url(#paint0_linear)"/>
    
    <!-- 书页效果 -->
    <path d="M34 32C34 33.1046 33.1046 34 32 34H8C6.89543 34 6 33.1046 6 32V31C6 29.8954 6.89543 29 8 29H32C33.1046 29 34 29.8954 34 31V32Z"
          fill="white" fill-opacity="0.3"/>
    
    <!-- 书脊 -->
    <path d="M8 6H10V34H8C6.89543 34 6 33.1046 6 32V8C6 6.89543 6.89543 6 8 6Z"
          fill="rgba(0,0,0,0.2)"/>
    
    <!-- 书页纹理线条 -->
    <path d="M12 12H28M12 18H28M12 24H28" 
          stroke="white" stroke-width="2" stroke-linecap="round"/>
          
    <defs>
        <linearGradient id="paint0_linear" x1="6" y1="6" x2="34" y2="34" gradientUnits="userSpaceOnUse">
            <stop offset="0" stop-color="#3BEA62"/>
            <stop offset="0.5" stop-color="#3C99CC"/>
            <stop offset="1" stop-color="#6B57FF"/>
        </linearGradient>
    </defs>
</svg>